<?xml version="1.0" encoding="UTF-8"?>
<!-- Generator: Adobe Illustrator 16.0.0, SVG Export Plug-In . SVG Version: 6.00 Build 0)  -->
<!DOCTYPE svg PUBLIC "-//W3C//DTD SVG 1.1//EN" "http://www.w3.org/Graphics/SVG/1.1/DTD/svg11.dtd">
<svg version="1.1" id="Layer_1" xmlns="http://www.w3.org/2000/svg" xmlns:xlink="http://www.w3.org/1999/xlink" x="0px" y="0px" width="135px" height="27px" viewBox="0 0 200.061 40.205" enable-background="new 0 0 200.061 40.205" xml:space="preserve">
<g>
	<path fill="#000000" d="M0,39.765v-39.6h13.172c2.53,0,4.693,0.243,6.49,0.729c1.796,0.486,3.272,1.178,4.428,2.076   c1.154,0.898,2.002,1.994,2.543,3.286s0.812,2.746,0.812,4.359c0,0.935-0.143,1.842-0.426,2.722   c-0.285,0.88-0.725,1.696-1.32,2.448c-0.596,0.752-1.344,1.435-2.241,2.049c-0.898,0.614-1.962,1.123-3.19,1.526   c2.806,0.587,4.909,1.622,6.312,3.107c1.402,1.485,2.104,3.419,2.104,5.802c0,1.687-0.316,3.231-0.948,4.634   c-0.633,1.402-1.55,2.613-2.75,3.63c-1.201,1.018-2.682,1.811-4.441,2.379c-1.76,0.568-3.768,0.853-6.022,0.853H0z M6.435,17.573   h6.435c2.75,0,4.804-0.532,6.16-1.595c1.356-1.063,2.035-2.594,2.035-4.592c0-2.182-0.638-3.758-1.911-4.73   c-1.274-0.972-3.269-1.458-5.981-1.458H6.435V17.573z M6.435,22.11v12.567h7.975c1.448,0,2.672-0.169,3.672-0.509   c0.999-0.339,1.814-0.802,2.447-1.389c0.632-0.586,1.091-1.279,1.375-2.076c0.284-0.798,0.426-1.654,0.426-2.571   c0-1.87-0.637-3.341-1.911-4.414c-1.274-1.072-3.286-1.608-6.036-1.608H6.435z"/>
	<path fill="#000000" d="M34.238,39.765v-28.05h3.438c0.623,0,1.054,0.115,1.292,0.344c0.238,0.229,0.403,0.628,0.495,1.196l0.33,3.657   c0.898-1.778,1.971-3.176,3.218-4.194c1.246-1.018,2.74-1.526,4.482-1.526c0.605,0,1.173,0.068,1.705,0.206   c0.531,0.138,1.008,0.344,1.43,0.619l-0.412,4.455c-0.073,0.312-0.188,0.527-0.344,0.646c-0.156,0.12-0.362,0.179-0.619,0.179   c-0.274,0-0.669-0.05-1.183-0.151c-0.513-0.101-1.054-0.151-1.622-0.151c-0.825,0-1.559,0.12-2.2,0.357   c-0.642,0.239-1.21,0.587-1.705,1.045c-0.495,0.458-0.935,1.018-1.319,1.678c-0.386,0.66-0.743,1.412-1.073,2.255v17.435H34.238z"/>
	<path fill="#000000" d="M65.312,11.275c1.724,0,3.318,0.28,4.785,0.839c1.467,0.56,2.731,1.38,3.795,2.461c1.063,1.082,1.893,2.406,2.489,3.974   c0.596,1.567,0.894,3.351,0.894,5.349c0,0.917-0.102,1.531-0.303,1.843c-0.202,0.312-0.568,0.467-1.1,0.467H57.86   c0.073,1.595,0.32,2.975,0.742,4.139c0.422,1.165,0.985,2.131,1.691,2.901s1.549,1.343,2.53,1.719   c0.98,0.376,2.076,0.564,3.286,0.564c1.155,0,2.154-0.133,2.997-0.399c0.844-0.266,1.577-0.559,2.2-0.88s1.155-0.614,1.595-0.88   c0.44-0.266,0.844-0.399,1.21-0.399c0.477,0,0.844,0.184,1.101,0.55l1.678,2.173c-0.697,0.825-1.485,1.522-2.365,2.09   c-0.88,0.568-1.815,1.031-2.805,1.389c-0.99,0.357-2.008,0.614-3.053,0.77s-2.063,0.234-3.053,0.234   c-1.943,0-3.745-0.326-5.403-0.977c-1.66-0.65-3.099-1.608-4.318-2.874c-1.219-1.265-2.172-2.833-2.859-4.703   c-0.688-1.87-1.031-4.024-1.031-6.462c0-1.943,0.307-3.758,0.921-5.445c0.614-1.687,1.494-3.153,2.641-4.4   c1.146-1.247,2.539-2.232,4.18-2.957C61.384,11.637,63.241,11.275,65.312,11.275z M65.422,15.565c-2.146,0-3.832,0.615-5.061,1.843   c-1.228,1.229-2.007,2.952-2.337,5.17h13.942c0-0.99-0.143-1.911-0.426-2.764c-0.285-0.853-0.702-1.595-1.252-2.228   s-1.233-1.127-2.049-1.485C67.425,15.744,66.485,15.565,65.422,15.565z"/>
	<path fill="#000000" d="M99.522,16.803c-0.146,0.257-0.312,0.44-0.494,0.55c-0.184,0.11-0.413,0.165-0.688,0.165c-0.313,0-0.651-0.096-1.018-0.289   c-0.367-0.192-0.798-0.408-1.293-0.646c-0.495-0.238-1.077-0.454-1.746-0.646c-0.67-0.193-1.453-0.289-2.352-0.289   c-0.733,0-1.398,0.087-1.993,0.261c-0.597,0.175-1.101,0.422-1.513,0.743c-0.413,0.321-0.729,0.697-0.949,1.127   c-0.22,0.431-0.33,0.894-0.33,1.389c0,0.66,0.202,1.21,0.605,1.65c0.403,0.44,0.935,0.82,1.595,1.141s1.412,0.61,2.255,0.866   c0.844,0.257,1.705,0.532,2.585,0.825c0.88,0.294,1.742,0.633,2.585,1.018c0.844,0.385,1.596,0.857,2.256,1.417   c0.659,0.56,1.191,1.237,1.595,2.035c0.403,0.798,0.604,1.765,0.604,2.901c0,1.32-0.238,2.54-0.715,3.658s-1.173,2.09-2.09,2.915   c-0.917,0.825-2.059,1.467-3.424,1.925c-1.366,0.458-2.929,0.688-4.688,0.688c-0.972,0-1.911-0.087-2.819-0.261   c-0.907-0.174-1.77-0.413-2.585-0.715c-0.815-0.303-1.576-0.665-2.282-1.086c-0.706-0.421-1.334-0.88-1.884-1.375l1.375-2.255   c0.165-0.275,0.371-0.49,0.619-0.646c0.247-0.155,0.554-0.233,0.921-0.233c0.385,0,0.766,0.124,1.142,0.371   c0.375,0.248,0.815,0.518,1.319,0.811c0.505,0.293,1.114,0.564,1.829,0.812s1.604,0.371,2.668,0.371c0.88,0,1.64-0.105,2.282-0.316   c0.642-0.21,1.173-0.499,1.595-0.866c0.422-0.366,0.733-0.784,0.936-1.251c0.201-0.468,0.302-0.967,0.302-1.499   c0-0.715-0.201-1.301-0.604-1.76c-0.403-0.458-0.939-0.853-1.609-1.183c-0.669-0.33-1.43-0.623-2.282-0.88   c-0.853-0.256-1.719-0.532-2.599-0.825c-0.88-0.293-1.746-0.632-2.599-1.018c-0.853-0.385-1.613-0.875-2.282-1.471   c-0.67-0.595-1.206-1.32-1.609-2.172s-0.604-1.893-0.604-3.121c0-1.118,0.224-2.182,0.674-3.19   c0.448-1.008,1.108-1.897,1.979-2.667s1.943-1.379,3.218-1.829c1.274-0.449,2.745-0.674,4.414-0.674   c1.888,0,3.603,0.303,5.143,0.908c1.539,0.605,2.832,1.43,3.877,2.475L99.522,16.803z"/>
	<path fill="#000000" d="M115.774,40.205c-2.328,0-4.12-0.655-5.376-1.966c-1.256-1.311-1.884-3.158-1.884-5.541V16.363h-3.08   c-0.33,0-0.614-0.105-0.853-0.316c-0.238-0.21-0.357-0.527-0.357-0.949v-2.393l4.537-0.66l1.293-8.112   c0.092-0.312,0.247-0.564,0.468-0.756c0.22-0.192,0.513-0.289,0.88-0.289h3.024V12.1h7.783v4.263h-7.783v15.922   c0,1.008,0.248,1.778,0.743,2.31s1.154,0.797,1.979,0.797c0.458,0,0.853-0.059,1.183-0.179c0.33-0.119,0.614-0.248,0.853-0.385   c0.238-0.138,0.444-0.266,0.619-0.385c0.174-0.119,0.344-0.179,0.509-0.179c0.33,0,0.596,0.184,0.797,0.55l1.761,2.888   c-0.917,0.807-1.999,1.426-3.245,1.856C118.377,39.989,117.094,40.205,115.774,40.205z"/>
	<path fill="#000000" d="M127.599,38.143c0-0.586,0.197-1.086,0.592-1.499c0.394-0.413,0.884-0.619,1.471-0.619s1.086,0.207,1.499,0.619   c0.412,0.412,0.618,0.912,0.618,1.499c0,0.587-0.206,1.077-0.618,1.471c-0.413,0.394-0.912,0.591-1.499,0.591   s-1.077-0.197-1.471-0.591C127.796,39.22,127.599,38.729,127.599,38.143z"/>
	<path fill="#000000" d="M140.909,39.765V0h1.458v17.875c0.586-0.861,1.232-1.641,1.938-2.337c0.705-0.696,1.476-1.292,2.31-1.788   c0.834-0.495,1.737-0.875,2.709-1.141c0.972-0.266,2.017-0.399,3.135-0.399c1.65,0,3.126,0.293,4.428,0.88s2.401,1.443,3.3,2.571   c0.898,1.127,1.582,2.512,2.049,4.152c0.468,1.641,0.701,3.516,0.701,5.624c0,2.2-0.257,4.203-0.77,6.009   c-0.514,1.806-1.274,3.346-2.282,4.62c-1.009,1.274-2.246,2.265-3.713,2.97s-3.153,1.059-5.06,1.059   c-3.905,0-6.839-1.54-8.801-4.62l-0.137,3.795c-0.019,0.128-0.061,0.243-0.124,0.344c-0.064,0.101-0.188,0.151-0.371,0.151H140.909   z M152.157,13.365c-2.146,0-4.021,0.527-5.624,1.581c-1.604,1.055-2.993,2.499-4.166,4.332v14.877   c1.118,1.76,2.374,3.002,3.768,3.726c1.393,0.725,2.97,1.086,4.729,1.086c1.797,0,3.359-0.325,4.688-0.977   c1.329-0.65,2.43-1.563,3.301-2.736c0.87-1.173,1.521-2.585,1.952-4.235s0.646-3.483,0.646-5.5c0-4.015-0.812-7.044-2.434-9.089   C157.395,14.387,155.108,13.365,152.157,13.365z"/>
	<path fill="#000000" d="M173.909,2.86c0,0.257-0.055,0.495-0.165,0.715c-0.109,0.22-0.252,0.417-0.426,0.591c-0.175,0.174-0.376,0.312-0.605,0.413   s-0.463,0.151-0.701,0.151c-0.514,0-0.958-0.188-1.334-0.563c-0.376-0.375-0.563-0.812-0.563-1.306   c0-0.513,0.188-0.958,0.563-1.334c0.376-0.375,0.82-0.564,1.334-0.564c0.238,0,0.472,0.051,0.701,0.151   c0.229,0.101,0.431,0.239,0.605,0.413c0.174,0.174,0.316,0.376,0.426,0.605C173.854,2.361,173.909,2.604,173.909,2.86z    M172.726,12.65v27.115h-1.43V12.65H172.726z"/>
	<path fill="#000000" d="M200.061,13.255c0,0.11-0.023,0.211-0.068,0.302c-0.047,0.092-0.115,0.192-0.207,0.303l-18.177,24.75h17.682v1.155h-19.497   v-0.522c0-0.11,0.022-0.21,0.068-0.303c0.046-0.091,0.114-0.201,0.207-0.33l18.205-24.805h-17.546V12.65h19.333V13.255z"/>
</g>
</svg>